<svg xmlns="http://www.w3.org/2000/svg" viewBox="0 0 42 42"><defs><style>.cls-1{fill:#fff;}</style></defs><g id="레이어_2" data-name="레이어 2"><g id="Layer_1" data-name="Layer 1"><rect width="42" height="42" rx="21"/><path class="cls-1" d="M26.36,19.61a4.43,4.43,0,0,1,2.12-3.73,4.56,4.56,0,0,0-3.59-2c-1.53-.16-3,.9-3.76.9s-2-.88-3.24-.85a4.81,4.81,0,0,0-4.07,2.46c-1.73,3-.44,7.46,1.25,9.9.82,1.19,1.81,2.53,3.1,2.48s1.71-.8,3.22-.8,1.93.8,3.24.78,2.19-1.22,3-2.41A11.05,11.05,0,0,0,29,23.59,4.34,4.34,0,0,1,26.36,19.61Z"/><path class="cls-1" d="M23.89,12.31a4.27,4.27,0,0,0,1-3.13A4.38,4.38,0,0,0,22,10.66,4.13,4.13,0,0,0,21,13.71,3.69,3.69,0,0,0,23.89,12.31Z"/></g></g></svg>