<svg id="Layer_1" data-name="Layer 1" xmlns="http://www.w3.org/2000/svg" xmlns:xlink="http://www.w3.org/1999/xlink" viewBox="0 0 42 42"><defs><style>.cls-1,.cls-2,.cls-3{fill:none;}.cls-2,.cls-3{clip-path:url(#clip-path);}.cls-2{clip-rule:evenodd;}.cls-3{fill-rule:evenodd;}.cls-4{fill:#fff;}.cls-5{clip-path:url(#clip-path-5);}.cls-6{fill:#3e82f1;}.cls-7{fill:#32a753;}.cls-8{fill:#f9bb00;}.cls-9{fill:#e74235;}</style><clipPath id="clip-path"><rect class="cls-1" x="-2" y="-2" width="46" height="46"/></clipPath><clipPath id="clip-path-5"><path class="cls-2" d="M-3-3H45V45H-3Zm0,0"/></clipPath></defs><rect class="cls-4" width="42" height="42" rx="21"/><g class="cls-5"><path class="cls-6" d="M21,19.36v3.49h4.84a4.12,4.12,0,0,1-1.79,2.71v2.26H27a8.78,8.78,0,0,0,2.68-6.62,11,11,0,0,0-.16-1.84Z"/></g><g class="cls-5"><path class="cls-7" d="M21,26.42a5.37,5.37,0,0,1-5-3.71H13V25a9,9,0,0,0,8,5,8.62,8.62,0,0,0,6-2.18l-2.91-2.26A5.43,5.43,0,0,1,21,26.42Z"/></g><g class="cls-5"><path class="cls-8" d="M12,21a9,9,0,0,0,1,4l3-2.33a5.36,5.36,0,0,1,0-3.42V17H13A9,9,0,0,0,12,21Z"/></g><g class="cls-5"><path class="cls-9" d="M24.44,16.93A4.83,4.83,0,0,0,21,15.58a5.37,5.37,0,0,0-5,3.71L13,17a9,9,0,0,1,8-5,8.65,8.65,0,0,1,6,2.34Z"/><path class="cls-9" d="M13,17l3,2.33a5.37,5.37,0,0,1,5-3.71,4.83,4.83,0,0,1,3.44,1.35L27,14.34A8.65,8.65,0,0,0,21,12,9,9,0,0,0,13,17Z"/></g></svg>